<svg width="1em" height="1em" viewBox="0 0 12 12" fill="none" xmlns="http://www.w3.org/2000/svg"><path d="M8.556.522H3.69A2.991 2.991 0 0 0 .7 3.513v4.87c0 1.65 1.339 2.99 2.99 2.99h4.87c1.65 0 2.99-1.34 2.99-2.99v-4.87c0-1.651-1.34-2.99-2.99-2.99h-.003Zm2.116 7.848a2.128 2.128 0 0 1-2.128 2.128H3.701A2.128 2.128 0 0 1 1.573 8.37V3.525c0-1.175.953-2.128 2.128-2.128h4.845c1.175 0 2.128.953 2.128 2.128V8.37h-.002Z" fill="#f6f6f6"/><path d="M6.124 3.088a2.861 2.861 0 0 0 0 5.72 2.861 2.861 0 0 0 0-5.72Zm0 4.724a1.864 1.864 0 1 1-.001-3.727 1.864 1.864 0 0 1 0 3.727Zm3.597-4.819a.64.64 0 1 1-1.28.001.64.64 0 0 1 1.28 0Z" fill="#f6f6f6"/></svg>