<svg width="1em" height="1em" viewBox="0 0 20 20" fill="none" xmlns="http://www.w3.org/2000/svg" class="wt-apd-it-ic"><path fill-rule="evenodd" clip-rule="evenodd" d="M15.336 7.333H9.7l3.97-3.983a.492.492 0 0 0 0-.708.5.5 0 0 0-.7 0L9.16 6.458l-2.147-2.15a.5.5 0 0 0-.81.547c.025.06.063.116.11.162L8.62 7.333H4.666a1.29 1.29 0 0 0-1.332 1.242v6.842a1.292 1.292 0 0 0 1.332 1.25h10.67a1.289 1.289 0 0 0 1.331-1.25V8.575a1.292 1.292 0 0 0-1.331-1.242Zm-2.855 2.35-.616.617-1.748 1.75 1.89 1.925a.501.501 0 0 1-.708.708l-1.89-1.925-1.006 1.009a.507.507 0 0 1-.82-.162.492.492 0 0 1 .112-.547l.982-1.008-.699-.7-.374-.375a.5.5 0 0 1 .707-.708l.375.375.699.7 1.79-1.75.615-.617a.5.5 0 1 1 .708.708h-.017Z" fill="#292c31"/></svg>