<svg width="1em" height="1em" viewBox="0 0 24 24" fill="none" xmlns="http://www.w3.org/2000/svg" class="wt-apd-it-ic"><path fill-rule="evenodd" clip-rule="evenodd" d="M4.66 13.007a.298.298 0 0 1-.295.29c-.16 0-.29-.13-.285-.29a8.386 8.386 0 0 1 2.458-5.662 8.38 8.38 0 0 1 5.658-2.46c.16-.006.29.124.29.285 0 .16-.13.29-.29.295a7.773 7.773 0 0 0-5.248 2.29 7.784 7.784 0 0 0-2.288 5.252Zm7.805 7.073c-1.82 0-3.53-.709-4.816-1.996a6.773 6.773 0 0 1-1.995-4.82c0-1.82.709-3.53 1.995-4.818a6.764 6.764 0 0 1 4.816-1.996c1.82 0 3.53.709 4.816 1.996a6.773 6.773 0 0 1 1.995 4.819c0 1.82-.709 3.532-1.995 4.819a6.764 6.764 0 0 1-4.816 1.996ZM8.257 9.054a5.917 5.917 0 0 0-1.743 4.21c0 1.591.619 3.087 1.743 4.212a5.91 5.91 0 0 0 4.208 1.744 5.91 5.91 0 0 0 4.208-1.744 5.919 5.919 0 0 0 1.743-4.211c0-1.59-.619-3.086-1.743-4.211a5.91 5.91 0 0 0-4.208-1.744 5.91 5.91 0 0 0-4.208 1.744Zm.747 7.725a4.912 4.912 0 0 0 3.497 1.45A4.912 4.912 0 0 0 16 16.779a4.919 4.919 0 0 0 1.448-3.5A4.919 4.919 0 0 0 16 9.78 4.912 4.912 0 0 0 12.5 8.33c-1.32 0-2.563.515-3.497 1.45a4.918 4.918 0 0 0-1.448 3.5c0 1.322.514 2.565 1.448 3.5Zm-.868-3.5c0-1.166.454-2.263 1.278-3.088a4.336 4.336 0 0 1 3.087-1.28c1.166 0 2.263.455 3.087 1.28a4.342 4.342 0 0 1 1.279 3.089 4.341 4.341 0 0 1-1.279 3.089 4.336 4.336 0 0 1-3.087 1.28 4.336 4.336 0 0 1-3.087-1.28 4.341 4.341 0 0 1-1.278-3.09Z" fill="#292c31"/><path fill-rule="evenodd" clip-rule="evenodd" d="m16.61 6.345-.862 7.095v-.006a1.4 1.4 0 0 1-.004.077c-.08 1.065-1.326 1.855-2.778 1.762-1.452-.093-2.567-1.028-2.486-2.092.08-1.064 1.326-1.855 2.78-1.762.614.039 1.167.228 1.594.514l.968-7.853 1.07.115c-.033.175.08.363.08.363.17.302.59.598.59.598.08.074.598.367.598.367.055.021.318.187.318.187.264.148.686.505.686.505.263.21.534.567.534.567.16.204.276.436.337.68.056.195.054.4-.004.594-.077.304-.325.628-.325.628-.146.229-.4.434-.4.434-.25.197-.386.122-.386.122.03-.039.192-.4.192-.4.1-.223.168-.578.168-.578.06-.34-.029-.671-.029-.671a1.3 1.3 0 0 0-.435-.638c-.362-.3-.897-.432-.897-.432-.518-.16-1.309-.176-1.309-.176Z" fill="#292c31"/></svg>