<svg width="1em" height="1em" viewBox="0 0 24 24" fill="none" xmlns="http://www.w3.org/2000/svg" class="wt-header-profiledropdown-icon"><path fill-rule="evenodd" clip-rule="evenodd" d="M12 3.6a8.4 8.4 0 1 0 0 16.8 8.4 8.4 0 0 0 0-16.8ZM2.4 12a9.6 9.6 0 1 1 19.2 0 9.6 9.6 0 0 1-19.2 0Z" fill="#000000"/><path fill-rule="evenodd" clip-rule="evenodd" d="M11.047 8.865a1.89 1.89 0 0 0-.857 1.264.6.6 0 0 1-1.18-.215 3.09 3.09 0 0 1 1.44-2.089 3.32 3.32 0 0 1 4.41 1.091 2.751 2.751 0 0 1 .227 2.106 3.592 3.592 0 0 1-1.999 2.036c-.46.239-.593.394-.648.496-.068.124-.09.276-.119.712a.6.6 0 1 1-1.194-.134c.024-.356.052-.773.26-1.153.228-.42.623-.717 1.177-1.002a.578.578 0 0 1 .053-.024 2.394 2.394 0 0 0 1.327-1.3 1.55 1.55 0 0 0-.123-1.136 2.12 2.12 0 0 0-2.774-.652ZM11.722 15.626a.6.6 0 0 1 .6.6v.1a.6.6 0 0 1-1.2 0v-.1a.6.6 0 0 1 .6-.6Z" fill="#000000"/></svg>