<svg width="1em" height="1em" viewBox="0 0 24 24" fill="none" xmlns="http://www.w3.org/2000/svg" class="wt-apd-ci"><path fill-rule="evenodd" clip-rule="evenodd" d="M19.6 5a.6.6 0 0 0-.6-.6h-5.385a.6.6 0 0 0-.6.6v5.385a.6.6 0 0 0 .6.6H19a.6.6 0 0 0 .6-.6V5Zm-1.2.6v4.185h-4.185V5.6H18.4Zm1.2 8.016a.6.6 0 0 0-.6-.6h-5.385a.6.6 0 0 0-.6.6V19a.6.6 0 0 0 .6.6H19a.6.6 0 0 0 .6-.6v-5.384Zm-1.2.6V18.4h-4.185v-4.184H18.4ZM10.985 5a.6.6 0 0 0-.6-.6H5a.6.6 0 0 0-.6.6v5.385a.6.6 0 0 0 .6.6h5.384a.6.6 0 0 0 .6-.6V5Zm-1.2.6v4.185H5.6V5.6h4.185Zm1.2 8.016a.6.6 0 0 0-.6-.6H5a.6.6 0 0 0-.6.6V19a.6.6 0 0 0 .6.6h5.384a.6.6 0 0 0 .6-.6v-5.384Zm-1.2.6V18.4H5.6v-4.184h4.185Z" fill="#1b53da"/></svg>