<svg width="1em" height="1em" viewBox="0 0 11 10" fill="none" xmlns="http://www.w3.org/2000/svg"><path d="M10.524 1.86a4.327 4.327 0 0 1-1.223.336c.44-.264.776-.68.936-1.178a4.307 4.307 0 0 1-1.352.518 2.128 2.128 0 0 0-3.627 1.941A6.037 6.037 0 0 1 .873 1.253a2.132 2.132 0 0 0 .66 2.843 2.139 2.139 0 0 1-.965-.266v.027a2.13 2.13 0 0 0 1.707 2.086 2.15 2.15 0 0 1-.962.037A2.128 2.128 0 0 0 3.3 7.457a4.271 4.271 0 0 1-3.15.882c.94.605 2.06.958 3.261.958 3.915 0 6.057-3.242 6.057-6.057 0-.092 0-.184-.007-.275.415-.3.776-.675 1.061-1.103l.002-.002Z" fill="#f6f6f6"/></svg>