<svg width="1em" height="1em" viewBox="0 0 24 24" fill="none" xmlns="http://www.w3.org/2000/svg" class="wt-header-profiledropdown-icon"><path fill-rule="evenodd" clip-rule="evenodd" d="M3.161 4.162A2.6 2.6 0 0 1 5 3.4h7A2.6 2.6 0 0 1 14.6 6v2a.6.6 0 1 1-1.2 0V6A1.4 1.4 0 0 0 12 4.6H5A1.4 1.4 0 0 0 3.6 6v12A1.4 1.4 0 0 0 5 19.4h7a1.4 1.4 0 0 0 1.4-1.4v-2a.6.6 0 0 1 1.2 0v2a2.6 2.6 0 0 1-2.6 2.6H5A2.6 2.6 0 0 1 2.4 18V6c0-.69.274-1.35.761-1.838Z" fill="#000000"/><path fill-rule="evenodd" clip-rule="evenodd" d="M17.576 8.576a.6.6 0 0 1 .848 0l3 3a.6.6 0 0 1 0 .848l-3 3a.6.6 0 0 1-.848-.848l1.976-1.976H7a.6.6 0 1 1 0-1.2h12.552l-1.976-1.976a.6.6 0 0 1 0-.848Z" fill="#000000"/></svg>