<svg width="1em" height="1em" viewBox="0 0 24 24" fill="none" xmlns="http://www.w3.org/2000/svg" class="wt-header-profiledropdown-icon"><path fill-rule="evenodd" clip-rule="evenodd" d="M11.915 4.51a7.493 7.493 0 0 0-7.305 5.825.6.6 0 0 1-1.17-.266 8.693 8.693 0 0 1 16.949 0 .6.6 0 0 1-1.17.266 7.493 7.493 0 0 0-7.305-5.825Zm-8.023 8.703a.6.6 0 0 1 .718.452 7.493 7.493 0 0 0 14.609 0 .6.6 0 0 1 1.17.266 8.693 8.693 0 0 1-16.95 0 .6.6 0 0 1 .453-.718Z" fill="#000000"/><path fill-rule="evenodd" clip-rule="evenodd" d="M2.08 16.403a.6.6 0 0 1-.163-.833l1.704-2.533a.6.6 0 0 1 .833-.163l2.533 1.704a.6.6 0 0 1-.67.996l-2.035-1.37-1.37 2.036a.6.6 0 0 1-.832.163ZM21.938 8.43a.6.6 0 0 1 .158.834l-1.717 2.516a.6.6 0 0 1-.834.158L17.03 10.22a.6.6 0 0 1 .676-.99l2.021 1.377 1.378-2.02a.6.6 0 0 1 .834-.158ZM9.292 9.123a.6.6 0 0 1 .6-.6h4.045a.6.6 0 1 1 0 1.2h-.882c.182.38.257.807.23 1.224a2.46 2.46 0 0 1-.743 1.62c-.332.319-.76.547-1.272.655l1.95 1.95a.6.6 0 0 1-.849.848l-2.903-2.903a.6.6 0 0 1 .424-1.025h.674c.562 0 .922-.176 1.145-.39.23-.22.356-.52.376-.833.02-.316-.07-.612-.23-.817-.152-.192-.38-.329-.72-.329H9.892a.6.6 0 0 1-.6-.6Z" fill="#000000"/><path fill-rule="evenodd" clip-rule="evenodd" d="M9.292 10.874a.6.6 0 0 1 .6-.6h4.045a.6.6 0 1 1 0 1.2H9.892a.6.6 0 0 1-.6-.6Z" fill="#000000"/></svg>